<svg width="94" height="130" viewBox="0 0 94 130" fill="none" xmlns="http://www.w3.org/2000/svg">
<rect width="94" height="130" rx="10" fill="black" fill-opacity="0.8"/>
<rect x="19.4892" y="40.5845" width="49" height="25" transform="rotate(-17.9652 19.4892 40.5845)" stroke="#EAE8FE" stroke-width="2"/>
<rect x="23.2685" y="42.513" width="43" height="19" transform="rotate(-17.9652 23.2685 42.513)" stroke="#EAE8FE" stroke-width="2"/>
<path d="M41.2932 43.8861L39.0559 44.6115L38.568 43.1067L40.8053 42.3812L41.2932 43.8861ZM36.9118 45.3068L35.5934 45.7343L36.1375 47.4123L45.2865 44.4457L44.7425 42.7677L43.4373 43.1909L42.9494 41.686L44.3877 41.2196L43.8436 39.5416L34.4415 42.5903L34.9856 44.2683L36.4239 43.8019L36.9118 45.3068ZM44.7214 50.7367L40.2601 52.1833L39.9967 51.3709L44.458 49.9244L44.7214 50.7367ZM47.1083 46.3422L46.5642 44.6642L35.2578 48.3304L35.8019 50.0084L40.383 48.5229L40.6421 49.322L37.3394 50.3929L38.6824 54.5346L47.3786 51.7148L46.0357 47.5731L42.7996 48.6224L42.5405 47.8234L47.1083 46.3422ZM53.2344 38.8221L53.7828 40.5134L55.3809 39.9952L56.0891 42.1792L58.2465 41.4797L56.2083 35.1939L54.0509 35.8934L54.8325 38.3039L53.2344 38.8221ZM54.7006 40.8928C52.7296 40.9873 51.6564 40.1285 51.1692 39.0796L53.4065 38.3542L52.8624 36.6762L46.1238 38.8612L46.6679 40.5392L48.9185 39.8094C49.1481 40.9712 48.7729 42.4469 47.0718 43.646L48.6147 45.0002C49.9278 44.1476 50.5927 42.9754 50.8108 41.7419C51.6501 42.5148 52.7975 42.9669 54.2459 42.8946L54.7006 40.8928ZM53.4519 47.9353L53.3137 47.5091L59.5463 45.4882L58.389 41.9192L50.0123 44.6353L50.5392 46.26L56.785 44.2348L56.9189 44.6477L50.6863 46.6685L51.8522 50.2643L60.5219 47.4531L59.9907 45.8151L53.4519 47.9353Z" fill="#EAE8FE"/>
</svg>
